700.ufo
<glyph name="numbersign" format="1">
  <advance width="1136"/>
  <unicode hex="0023"/>
  <outline>
    <contour>
      <point x="165" y="-9" type="line"/>
      <point x="305" y="-9" type="line"/>
      <point x="391" y="452" type="line"/>
      <point x="631" y="452" type="line"/>
      <point x="545" y="-9" type="line"/>
      <point x="685" y="-9" type="line"/>
      <point x="772" y="452" type="line"/>
      <point x="967" y="452" type="line"/>
      <point x="983" y="566" type="line"/>
      <point x="794" y="566" type="line"/>
      <point x="871" y="979" type="line"/>
      <point x="1054" y="979" type="line"/>
      <point x="1071" y="1094" type="line"/>
      <point x="892" y="1094" type="line"/>
      <point x="965" y="1480" type="line"/>
      <point x="824" y="1480" type="line"/>
      <point x="752" y="1094" type="line"/>
      <point x="512" y="1094" type="line"/>
      <point x="585" y="1480" type="line"/>
      <point x="443" y="1480" type="line"/>
      <point x="371" y="1094" type="line"/>
      <point x="172" y="1094" type="line"/>
      <point x="156" y="979" type="line"/>
      <point x="350" y="979" type="line"/>
      <point x="272" y="566" type="line"/>
      <point x="85" y="566" type="line"/>
      <point x="69" y="452" type="line"/>
      <point x="251" y="452" type="line"/>
    </contour>
    <contour>
      <point x="413" y="566" type="line"/>
      <point x="491" y="979" type="line"/>
      <point x="730" y="979" type="line"/>
      <point x="652" y="566" type="line"/>
    </contour>
  </outline>
</glyph>
<glyph name="percent" format="1">
  <advance width="1908"/>
  <unicode hex="0025"/>
  <outline>
    <contour>
      <point x="446" y="864" type="curve" smooth="yes"/>
      <point x="311" y="864"/>
      <point x="255" y="973"/>
      <point x="255" y="1119" type="curve" smooth="yes"/>
      <point x="255" y="1261"/>
      <point x="311" y="1370"/>
      <point x="446" y="1370" type="curve" smooth="yes"/>
      <point x="579" y="1370"/>
      <point x="634" y="1266"/>
      <point x="634" y="1119" type="curve" smooth="yes"/>
      <point x="634" y="976"/>
      <point x="580" y="864"/>
    </contour>
    <contour>
      <point x="443" y="717" type="curve" smooth="yes"/>
      <point x="680" y="717"/>
      <point x="807" y="892"/>
      <point x="807" y="1116" type="curve" smooth="yes"/>
      <point x="807" y="1344"/>
      <point x="683" y="1513"/>
      <point x="443" y="1513" type="curve" smooth="yes"/>
      <point x="208" y="1513"/>
      <point x="90" y="1341"/>
      <point x="90" y="1116" type="curve" smooth="yes"/>
      <point x="90" y="892"/>
      <point x="204" y="717"/>
    </contour>
    <contour>
      <point x="421" y="0" type="line"/>
      <point x="613" y="0" type="line"/>
      <point x="1447" y="1493" type="line"/>
      <point x="1264" y="1493" type="line"/>
    </contour>
    <contour>
      <point x="1431" y="127" type="curve" smooth="yes"/>
      <point x="1296" y="127"/>
      <point x="1240" y="237"/>
      <point x="1240" y="382" type="curve" smooth="yes"/>
      <point x="1240" y="524"/>
      <point x="1296" y="633"/>
      <point x="1431" y="633" type="curve" smooth="yes"/>
      <point x="1564" y="633"/>
      <point x="1619" y="529"/>
      <point x="1619" y="382" type="curve" smooth="yes"/>
      <point x="1619" y="240"/>
      <point x="1565" y="127"/>
    </contour>
    <contour>
      <point x="1428" y="-20" type="curve" smooth="yes"/>
      <point x="1665" y="-20"/>
      <point x="1792" y="155"/>
      <point x="1792" y="380" type="curve" smooth="yes"/>
      <point x="1792" y="608"/>
      <point x="1668" y="776"/>
      <point x="1428" y="776" type="curve" smooth="yes"/>
      <point x="1193" y="776"/>
      <point x="1066" y="604"/>
      <point x="1066" y="380" type="curve" smooth="yes"/>
      <point x="1066" y="155"/>
      <point x="1189" y="-20"/>
    </contour>
  </outline>
</glyph>
<glyph name="ampersand" format="1">
  <advance width="1420"/>
  <unicode hex="0026"/>
  <outline>
    <contour>
      <point x="1134" y="-40" type="line"/>
      <point x="1288" y="92" type="line"/>
      <point x="1148.24" y="249.396" type="line"/>
      <point x="1222.65" y="334.715"/>
      <point x="1281.42" y="431.349"/>
      <point x="1325" y="525" type="curve"/>
      <point x="1172" y="627" type="line"/>
      <point x="1130.74" y="539.117"/>
      <point x="1081.5" y="457.648"/>
      <point x="1025.02" y="388.177" type="curve"/>
      <point x="670" y="788" type="line"/>
      <point x="838" y="878"/>
      <point x="997" y="1016"/>
      <point x="997" y="1197" type="curve" smooth="yes"/>
      <point x="997" y="1414"/>
      <point x="812" y="1509"/>
      <point x="621" y="1509" type="curve" smooth="yes"/>
      <point x="413" y="1509"/>
      <point x="231" y="1387"/>
      <point x="231" y="1171" type="curve" smooth="yes"/>
      <point x="231" y="1041"/>
      <point x="293" y="922"/>
      <point x="381" y="822" type="curve"/>
      <point x="219" y="729"/>
      <point x="95" y="618"/>
      <point x="95" y="401" type="curve" smooth="yes"/>
      <point x="95" y="119"/>
      <point x="312" y="-18"/>
      <point x="601" y="-18" type="curve" smooth="yes"/>
      <point x="756.503" y="-18"/>
      <point x="888.955" y="33.3665"/>
      <point x="999.128" y="112.437" type="curve"/>
    </contour>
    <contour>
      <point x="610" y="160" type="curve" smooth="yes"/>
      <point x="441" y="160"/>
      <point x="313" y="240"/>
      <point x="313" y="410" type="curve" smooth="yes"/>
      <point x="313" y="536"/>
      <point x="384" y="627"/>
      <point x="489" y="689" type="curve"/>
      <point x="878.317" y="248.982" type="line"/>
      <point x="797.897" y="192.821"/>
      <point x="708.031" y="160"/>
    </contour>
    <contour>
      <point x="565" y="915" type="curve"/>
      <point x="481" y="1001"/>
      <point x="439" y="1096"/>
      <point x="439" y="1188" type="curve" smooth="yes"/>
      <point x="439" y="1294"/>
      <point x="521" y="1348"/>
      <point x="626" y="1348" type="curve" smooth="yes"/>
      <point x="729" y="1348"/>
      <point x="793" y="1296"/>
      <point x="793" y="1192" type="curve" smooth="yes"/>
      <point x="793" y="1073"/>
      <point x="680" y="975"/>
    </contour>
  </outline>
</glyph>
<glyph name="quotesingle" format="1">
  <advance width="624"/>
  <unicode hex="0027"/>
  <outline>
    <contour>
      <point x="235" y="855" type="line"/>
      <point x="361" y="855" type="line"/>
      <point x="423" y="1473" type="line"/>
      <point x="188" y="1473" type="line"/>
    </contour>
  </outline>
</glyph>
<glyph name="comma" format="1">
  <advance width="653"/>
  <unicode hex="002C"/>
  <outline>
    <contour>
      <point x="175" y="-352" type="curve"/>
      <point x="326" y="-352" type="line"/>
      <point x="326" y="-352"/>
      <point x="460" y="195"/>
      <point x="460" y="208" type="curve"/>
      <point x="465" y="259" type="line"/>
      <point x="247" y="259" type="line"/>
      <point x="247" y="226"/>
      <point x="175" y="-352"/>
    </contour>
    <contour>
      <point x="326.5" y="0" type="move" name="_bot"/>
    </contour>
    <contour>
      <point x="326.5" y="1082" type="move" name="_top"/>
    </contour>
  </outline>
</glyph>
<glyph name="one" format="1">
  <advance width="1192"/>
  <unicode hex="0031"/>
  <outline>
    <contour>
      <point x="121" y="1.72577e-06" type="line"/>
      <point x="1096" y="1.72577e-06" type="line"/>
      <point x="1096" y="184" type="line"/>
      <point x="759" y="184" type="line"/>
      <point x="759" y="1456" type="line"/>
      <point x="546" y="1456" type="line"/>
      <point x="465" y="1397"/>
      <point x="254" y="1333"/>
      <point x="146" y="1306" type="curve"/>
      <point x="146" y="1121" type="line"/>
      <point x="252.796" y="1136.85"/>
      <point x="425.723" y="1188.21"/>
      <point x="519" y="1239.64" type="curve"/>
      <point x="519" y="184" type="line"/>
      <point x="121" y="184" type="line"/>
    </contour>
  </outline>
</glyph>
<glyph name="six" format="1">
  <advance width="1192"/>
  <unicode hex="0036"/>
  <outline>
    <contour>
      <point x="600" y="-19" type="curve" smooth="yes"/>
      <point x="896" y="-19"/>
      <point x="1108" y="176"/>
      <point x="1105" y="453" type="curve" smooth="yes"/>
      <point x="1102" y="754"/>
      <point x="918" y="927"/>
      <point x="708" y="927" type="curve" smooth="yes"/>
      <point x="603.587" y="927"/>
      <point x="539.691" y="894.865"/>
      <point x="481.353" y="853.161" type="curve"/>
      <point x="610" y="1020" type="line"/>
      <point x="897" y="1432" type="line"/>
      <point x="897" y="1456" type="line"/>
      <point x="639" y="1456" type="line"/>
      <point x="300" y="966" type="line" smooth="yes"/>
      <point x="184" y="799"/>
      <point x="91.9999" y="663"/>
      <point x="91.9999" y="457" type="curve" smooth="yes"/>
      <point x="91.9999" y="184"/>
      <point x="291" y="-19"/>
    </contour>
    <contour>
      <point x="595" y="163" type="curve" smooth="yes"/>
      <point x="416" y="163"/>
      <point x="325" y="285"/>
      <point x="325" y="446" type="curve" smooth="yes"/>
      <point x="325" y="655"/>
      <point x="464" y="756"/>
      <point x="603" y="760" type="curve" smooth="yes"/>
      <point x="742" y="764"/>
      <point x="877" y="664"/>
      <point x="877" y="450" type="curve" smooth="yes"/>
      <point x="877" y="288"/>
      <point x="777" y="163"/>
    </contour>
  </outline>
</glyph>
<glyph name="colon" format="1">
  <advance width="681"/>
  <unicode hex="003A"/>
  <outline>
    <contour>
      <point x="340" y="-6" type="curve" smooth="yes"/>
      <point x="423" y="-6"/>
      <point x="476" y="60"/>
      <point x="476" y="133" type="curve" smooth="yes"/>
      <point x="476" y="207"/>
      <point x="423" y="274"/>
      <point x="340" y="274" type="curve" smooth="yes"/>
      <point x="256" y="274"/>
      <point x="202" y="207"/>
      <point x="202" y="133" type="curve" smooth="yes"/>
      <point x="202" y="59"/>
      <point x="257" y="-6"/>
    </contour>
    <contour>
      <point x="339" y="820" type="curve" smooth="yes"/>
      <point x="422" y="820"/>
      <point x="475" y="886"/>
      <point x="475" y="959" type="curve" smooth="yes"/>
      <point x="475" y="1032"/>
      <point x="422" y="1100"/>
      <point x="339" y="1100" type="curve" smooth="yes"/>
      <point x="255" y="1100"/>
      <point x="201" y="1032"/>
      <point x="201" y="959" type="curve" smooth="yes"/>
      <point x="201" y="885"/>
      <point x="256" y="820"/>
    </contour>
  </outline>
</glyph>
<glyph name="question" format="1">
  <advance width="994"/>
  <unicode hex="003F"/>
  <outline>
    <contour>
      <point x="407" y="449" type="line"/>
      <point x="490" y="696"/>
      <point x="843" y="844"/>
      <point x="843" y="1167" type="curve" smooth="yes"/>
      <point x="843" y="1400"/>
      <point x="651" y="1513"/>
      <point x="449" y="1513" type="curve" smooth="yes"/>
      <point x="328" y="1513"/>
      <point x="204" y="1473"/>
      <point x="115" y="1394" type="curve"/>
      <point x="175" y="1206" type="line"/>
      <point x="244" y="1247"/>
      <point x="325" y="1290"/>
      <point x="415" y="1290" type="curve" smooth="yes"/>
      <point x="501" y="1290"/>
      <point x="587" y="1230"/>
      <point x="588" y="1113" type="curve" smooth="yes"/>
      <point x="588" y="912"/>
      <point x="396" y="831"/>
      <point x="331" y="467" type="curve"/>
    </contour>
    <contour>
      <point x="368" y="-10" type="curve" smooth="yes"/>
      <point x="452" y="-10"/>
      <point x="504" y="58"/>
      <point x="504" y="133" type="curve" smooth="yes"/>
      <point x="504" y="208"/>
      <point x="452" y="275"/>
      <point x="368" y="275" type="curve" smooth="yes"/>
      <point x="283" y="275"/>
      <point x="229" y="208"/>
      <point x="229" y="133" type="curve" smooth="yes"/>
      <point x="229" y="58"/>
      <point x="284" y="-10"/>
    </contour>
  </outline>
</glyph>
<glyph name="A" format="1">
  <advance width="1383"/>
  <unicode hex="0041"/>
  <outline>
    <contour>
      <point x="38" y="0" type="line"/>
      <point x="277" y="0" type="line"/>
      <point x="414.092" y="413" type="line"/>
      <point x="955.581" y="413" type="line"/>
      <point x="1106" y="0" type="line"/>
      <point x="1346" y="0" type="line"/>
      <point x="835" y="1456" type="line"/>
      <point x="544" y="1456" type="line"/>
    </contour>
    <contour>
      <point x="470.907" y="587" type="line"/>
      <point x="690.374" y="1247.85" type="line"/>
      <point x="898.675" y="587" type="line"/>
    </contour>
    <contour>
      <point x="691.5" y="0" type="move" name="bot"/>
    </contour>
    <contour>
      <point x="1211" y="0" type="move" name="ogonek"/>
    </contour>
    <contour>
      <point x="691.5" y="1456" type="move" name="top"/>
    </contour>
  </outline>
</glyph>
<glyph name="B" format="1">
  <advance width="1334"/>
  <unicode hex="0042"/>
  <outline>
    <contour>
      <point x="525" y="-1" type="curve" smooth="yes"/>
      <point x="1056" y="-1"/>
      <point x="1219" y="129"/>
      <point x="1219" y="430" type="curve" smooth="yes"/>
      <point x="1219" y="614.255"/>
      <point x="1116.6" y="724.095"/>
      <point x="950.145" y="775.881" type="curve"/>
      <point x="1114.53" y="839.057"/>
      <point x="1174" y="946.123"/>
      <point x="1174" y="1085" type="curve" smooth="yes"/>
      <point x="1174" y="1345"/>
      <point x="1021" y="1457"/>
      <point x="565" y="1457" type="curve" smooth="yes"/>
      <point x="448" y="1457"/>
      <point x="311" y="1450"/>
      <point x="152" y="1436" type="curve"/>
      <point x="152" y="15" type="line"/>
      <point x="293" y="4"/>
      <point x="417" y="-1"/>
    </contour>
    <contour>
      <point x="559" y="185" type="curve" smooth="yes"/>
      <point x="508.594" y="185"/>
      <point x="453.521" y="187.333"/>
      <point x="392" y="191.108" type="curve"/>
      <point x="392" y="679" type="line"/>
      <point x="635" y="679" type="line" smooth="yes"/>
      <point x="871" y="679"/>
      <point x="981" y="621"/>
      <point x="981" y="440" type="curve" smooth="yes"/>
      <point x="981" y="273"/>
      <point x="903" y="185"/>
    </contour>
    <contour>
      <point x="392" y="849" type="line"/>
      <point x="392" y="1262.49" type="line"/>
      <point x="464.13" y="1267.5"/>
      <point x="527.632" y="1270"/>
      <point x="583" y="1270" type="curve" smooth="yes"/>
      <point x="844" y="1270"/>
      <point x="933" y="1211"/>
      <point x="933" y="1051" type="curve" smooth="yes"/>
      <point x="933" y="889"/>
      <point x="834" y="849"/>
      <point x="658" y="849" type="curve" smooth="yes"/>
    </contour>
    <contour>
      <point x="631" y="0" type="move" name="bot"/>
    </contour>
    <contour>
      <point x="641" y="1456" type="move" name="top"/>
    </contour>
  </outline>
</glyph>
<glyph name="G" format="1">
  <advance width="1448"/>
  <unicode hex="0047"/>
  <outline>
    <contour>
      <point x="786" y="-18" type="curve" smooth="yes"/>
      <point x="984" y="-18"/>
      <point x="1133" y="20"/>
      <point x="1287" y="85" type="curve"/>
      <point x="1287" y="798" type="line"/>
      <point x="750" y="798" type="line"/>
      <point x="741" y="615" type="line"/>
      <point x="1067" y="597.025" type="line"/>
      <point x="1067" y="219.413" type="line"/>
      <point x="1002.21" y="200.407"/>
      <point x="915.021" y="186"/>
      <point x="806" y="186" type="curve" smooth="yes"/>
      <point x="482" y="186"/>
      <point x="368" y="380"/>
      <point x="368" y="721" type="curve" smooth="yes"/>
      <point x="368" y="1079"/>
      <point x="519" y="1272"/>
      <point x="818" y="1272" type="curve" smooth="yes"/>
      <point x="981" y="1272"/>
      <point x="1084" y="1194"/>
      <point x="1144" y="1124" type="curve"/>
      <point x="1166" y="1124" type="line"/>
      <point x="1297" y="1256" type="line"/>
      <point x="1215" y="1378"/>
      <point x="1055" y="1476"/>
      <point x="804" y="1476" type="curve" smooth="yes"/>
      <point x="384" y="1476"/>
      <point x="114" y="1206"/>
      <point x="114" y="718" type="curve" smooth="yes"/>
      <point x="114" y="265"/>
      <point x="345" y="-18"/>
    </contour>
    <contour>
      <point x="784" y="0" type="move" name="bot"/>
    </contour>
    <contour>
      <point x="784" y="1456" type="move" name="top"/>
    </contour>
  </outline>
</glyph>
<glyph name="K" format="1">
  <advance width="1363"/>
  <unicode hex="004B"/>
  <outline>
    <contour>
      <point x="159" y="0" type="line"/>
      <point x="399" y="0" type="line"/>
      <point x="399" y="538.639" type="line"/>
      <point x="523.838" y="672.05" type="line"/>
      <point x="1035" y="0.0001" type="line"/>
      <point x="1313" y="0.0001" type="line"/>
      <point x="1313" y="14.0001" type="line"/>
      <point x="712.014" y="801.245" type="line"/>
      <point x="1278" y="1443" type="line"/>
      <point x="1278" y="1456" type="line"/>
      <point x="1006" y="1456" type="line"/>
      <point x="399" y="769.036" type="line"/>
      <point x="399" y="1456" type="line"/>
      <point x="159" y="1456" type="line"/>
    </contour>
    <contour>
      <point x="681.5" y="0" type="move" name="bot"/>
    </contour>
    <contour>
      <point x="681.5" y="1456" type="move" name="top"/>
    </contour>
  </outline>
</glyph>
<glyph name="M" format="1">
  <advance width="1817"/>
  <unicode hex="004D"/>
  <outline>
    <contour>
      <point x="152" y="0" type="line"/>
      <point x="374" y="0" type="line"/>
      <point x="374" y="515" type="line"/>
      <point x="384.386" y="1100.07" type="line"/>
      <point x="811" y="206" type="line"/>
      <point x="986" y="206" type="line"/>
      <point x="1416.6" y="1093.32" type="line"/>
      <point x="1426" y="518" type="line"/>
      <point x="1426" y="1.13687e-13" type="line"/>
      <point x="1649" y="1.13687e-13" type="line"/>
      <point x="1649" y="549" type="line"/>
      <point x="1626" y="1456" type="line"/>
      <point x="1363" y="1456" type="line"/>
      <point x="901.716" y="491.415" type="line"/>
      <point x="445" y="1456" type="line"/>
      <point x="175" y="1456" type="line"/>
      <point x="152" y="545" type="line"/>
    </contour>
    <contour>
      <point x="908.5" y="0" type="move" name="bot"/>
    </contour>
    <contour>
      <point x="908.5" y="1456" type="move" name="top"/>
    </contour>
  </outline>
</glyph>
<glyph name="N" format="1">
  <advance width="1476"/>
  <unicode hex="004E"/>
  <outline>
    <contour>
      <point x="171" y="0" type="line"/>
      <point x="399" y="0" type="line"/>
      <point x="399" y="560" type="line"/>
      <point x="383.863" y="1109.14" type="line"/>
      <point x="1035" y="0" type="line"/>
      <point x="1307" y="0" type="line"/>
      <point x="1307" y="1456" type="line"/>
      <point x="1079" y="1456" type="line"/>
      <point x="1079" y="788" type="line"/>
      <point x="1089.87" y="325.706" type="line"/>
      <point x="433" y="1456" type="line"/>
      <point x="171" y="1456" type="line"/>
    </contour>
    <contour>
      <point x="738" y="0" type="move" name="bot"/>
    </contour>
    <contour>
      <point x="738" y="1456" type="move" name="top"/>
    </contour>
  </outline>
</glyph>
<glyph name="O" format="1">
  <advance width="1533"/>
  <unicode hex="004F"/>
  <outline>
    <contour>
      <point x="771" y="186" type="curve" smooth="yes"/>
      <point x="479" y="186"/>
      <point x="362" y="398"/>
      <point x="362" y="724" type="curve" smooth="yes"/>
      <point x="362" y="1061"/>
      <point x="485" y="1276"/>
      <point x="772" y="1276" type="curve" smooth="yes"/>
      <point x="1060" y="1276"/>
      <point x="1177" y="1060"/>
      <point x="1177" y="724" type="curve" smooth="yes"/>
      <point x="1177" y="398"/>
      <point x="1063" y="186"/>
    </contour>
    <contour>
      <point x="772" y="-18" type="curve" smooth="yes"/>
      <point x="1206" y="-18"/>
      <point x="1431" y="260"/>
      <point x="1431" y="724" type="curve" smooth="yes"/>
      <point x="1431" y="1199"/>
      <point x="1199" y="1480"/>
      <point x="772" y="1480" type="curve" smooth="yes"/>
      <point x="341" y="1480"/>
      <point x="108" y="1201"/>
      <point x="108" y="725" type="curve" smooth="yes"/>
      <point x="108" y="258"/>
      <point x="336" y="-18"/>
    </contour>
    <contour>
      <point x="766.5" y="0" type="move" name="bot"/>
    </contour>
    <contour>
      <point x="800" y="0" type="move" name="ogonek"/>
    </contour>
    <contour>
      <point x="766.5" y="1456" type="move" name="top"/>
    </contour>
  </outline>
</glyph>
<glyph name="Q" format="1">
  <advance width="1533"/>
  <unicode hex="0051"/>
  <outline>
    <contour>
      <point x="1121" y="-508" type="line"/>
      <point x="1283" y="-398" type="line"/>
      <point x="955" y="94" type="line"/>
      <point x="744" y="62" type="line"/>
    </contour>
    <component base="O"/>
  </outline>
</glyph>
<glyph name="S" format="1">
  <advance width="1221"/>
  <unicode hex="0053"/>
  <outline>
    <contour>
      <point x="592" y="-17" type="curve" smooth="yes"/>
      <point x="852" y="-17"/>
      <point x="1096" y="100"/>
      <point x="1098" y="393" type="curve" smooth="yes"/>
      <point x="1100" y="658"/>
      <point x="966" y="732"/>
      <point x="748" y="818" type="curve" smooth="yes"/>
      <point x="488" y="922" type="line"/>
      <point x="392" y="965"/>
      <point x="358" y="1003"/>
      <point x="358" y="1097" type="curve" smooth="yes"/>
      <point x="358" y="1230"/>
      <point x="480" y="1282"/>
      <point x="623" y="1282" type="curve" smooth="yes"/>
      <point x="737" y="1282"/>
      <point x="842" y="1230"/>
      <point x="897" y="1145" type="curve"/>
      <point x="908" y="1145" type="line"/>
      <point x="1070" y="1254" type="line"/>
      <point x="995" y="1377"/>
      <point x="836" y="1480"/>
      <point x="610" y="1480" type="curve" smooth="yes"/>
      <point x="363" y="1480"/>
      <point x="122" y="1374"/>
      <point x="122" y="1083" type="curve" smooth="yes"/>
      <point x="122" y="849"/>
      <point x="236" y="772"/>
      <point x="415" y="698" type="curve" smooth="yes"/>
      <point x="662" y="600" type="line" smooth="yes"/>
      <point x="813" y="535"/>
      <point x="857" y="497"/>
      <point x="857" y="387" type="curve" smooth="yes"/>
      <point x="857" y="242"/>
      <point x="740" y="185"/>
      <point x="591" y="185" type="curve" smooth="yes"/>
      <point x="468" y="185"/>
      <point x="356" y="248"/>
      <point x="282" y="323" type="curve"/>
      <point x="257" y="323" type="line"/>
      <point x="108" y="202" type="line"/>
      <point x="198" y="94"/>
      <point x="383" y="-17"/>
    </contour>
    <contour>
      <point x="610.5" y="0" type="move" name="bot"/>
    </contour>
    <contour>
      <point x="610.5" y="1456" type="move" name="top"/>
    </contour>
  </outline>
</glyph>
<glyph name="V" format="1">
  <advance width="1221"/>
  <unicode hex="0056"/>
  <outline>
    <contour>
      <point x="465" y="0" type="line"/>
      <point x="733" y="0" type="line"/>
      <point x="1242" y="1456" type="line"/>
      <point x="987" y="1456" type="line"/>
      <point x="708" y="602" type="line"/>
      <point x="608.566" y="286.632" type="line"/>
      <point x="513" y="600" type="line"/>
      <point x="232" y="1456" type="line"/>
      <point x="-19" y="1456" type="line"/>
    </contour>
  </outline>
</glyph>
<glyph name="W" format="1">
  <advance width="1846"/>
  <unicode hex="0057"/>
  <outline>
    <contour>
      <point x="393" y="0" type="line"/>
      <point x="631" y="0" type="line"/>
      <point x="921.322" y="1081.36" type="line"/>
      <point x="1185" y="0" type="line"/>
      <point x="1432" y="0" type="line"/>
      <point x="1830" y="1456" type="line"/>
      <point x="1584" y="1456" type="line"/>
      <point x="1302.41" y="338.052" type="line"/>
      <point x="1037" y="1438" type="line"/>
      <point x="804" y="1438" type="line"/>
      <point x="520.386" y="343.53" type="line"/>
      <point x="256" y="1456" type="line"/>
      <point x="18" y="1456" type="line"/>
    </contour>
    <contour>
      <point x="923" y="0" type="move" name="bot"/>
    </contour>
    <contour>
      <point x="923" y="1456" type="move" name="top"/>
    </contour>
  </outline>
</glyph>
<glyph name="X" format="1">
  <advance width="1306"/>
  <unicode hex="0058"/>
  <outline>
    <contour>
      <point x="25" y="0" type="line"/>
      <point x="274" y="0" type="line"/>
      <point x="651" y="543.916" type="line"/>
      <point x="1010" y="0" type="line"/>
      <point x="1283" y="0" type="line"/>
      <point x="798.226" y="733.713" type="line"/>
      <point x="1262" y="1456" type="line"/>
      <point x="1007" y="1456" type="line"/>
      <point x="669.856" y="928.002" type="line"/>
      <point x="321" y="1456" type="line"/>
      <point x="49" y="1456" type="line"/>
      <point x="518.512" y="744.648" type="line"/>
    </contour>
  </outline>
</glyph>
<glyph name="Y" format="1">
  <advance width="1164"/>
  <unicode hex="0059"/>
  <outline>
    <contour>
      <point x="460" y="0" type="line"/>
      <point x="700" y="0" type="line"/>
      <point x="700" y="539.514" type="line"/>
      <point x="1197" y="1456" type="line"/>
      <point x="944" y="1456" type="line"/>
      <point x="578.783" y="762.087" type="line"/>
      <point x="209" y="1456" type="line"/>
      <point x="-38" y="1456" type="line"/>
      <point x="460" y="539.248" type="line"/>
    </contour>
    <contour>
      <point x="582" y="0" type="move" name="bot"/>
    </contour>
    <contour>
      <point x="582" y="1456" type="move" name="top"/>
    </contour>
  </outline>
</glyph>
<glyph name="Z" format="1">
  <advance width="1221"/>
  <unicode hex="005A"/>
  <outline>
    <contour>
      <point x="89" y="0" type="line"/>
      <point x="1138" y="0" type="line"/>
      <point x="1118" y="184" type="line"/>
      <point x="361.359" y="184" type="line"/>
      <point x="1105" y="1285" type="line"/>
      <point x="1102" y="1456" type="line"/>
      <point x="109" y="1456" type="line"/>
      <point x="117" y="1272" type="line"/>
      <point x="826.413" y="1272" type="line"/>
      <point x="89" y="164" type="line"/>
    </contour>
    <contour>
      <point x="610.5" y="0" type="move" name="bot"/>
    </contour>
    <contour>
      <point x="610.5" y="1456" type="move" name="top"/>
    </contour>
  </outline>
</glyph>
<glyph name="a" format="1">
  <advance width="1107"/>
  <unicode hex="0061"/>
  <outline>
    <contour>
      <point x="430" y="-18" type="curve" smooth="yes"/>
      <point x="597.049" y="-23.3599"/>
      <point x="716.218" y="49.4846"/>
      <point x="785.368" y="151.346" type="curve"/>
      <point x="819" y="-3.07388e-06" type="line"/>
      <point x="981" y="-3.07388e-06" type="line"/>
      <point x="981" y="671" type="line" smooth="yes"/>
      <point x="981" y="978"/>
      <point x="802" y="1101"/>
      <point x="560" y="1101" type="curve" smooth="yes"/>
      <point x="416" y="1101"/>
      <point x="249" y="1070"/>
      <point x="126" y="1011" type="curve"/>
      <point x="184" y="842" type="line"/>
      <point x="299" y="890"/>
      <point x="462" y="927"/>
      <point x="557" y="927" type="curve" smooth="yes"/>
      <point x="691" y="927"/>
      <point x="762" y="859"/>
      <point x="762" y="697" type="curve" smooth="yes"/>
      <point x="762" y="617.576" type="line"/>
      <point x="536" y="621" type="line" smooth="yes"/>
      <point x="275" y="625"/>
      <point x="99" y="532"/>
      <point x="99" y="299" type="curve" smooth="yes"/>
      <point x="99" y="87"/>
      <point x="249" y="-12"/>
    </contour>
    <contour>
      <point x="465" y="147" type="curve" smooth="yes"/>
      <point x="368" y="147"/>
      <point x="305" y="199"/>
      <point x="306" y="309" type="curve" smooth="yes"/>
      <point x="307" y="429"/>
      <point x="396" y="467"/>
      <point x="586" y="468" type="curve" smooth="yes"/>
      <point x="761" y="468.845" type="line"/>
      <point x="761" y="281.584" type="line"/>
      <point x="703.861" y="209.829"/>
      <point x="605.904" y="147"/>
    </contour>
    <contour>
      <point x="553.5" y="0" type="move" name="bot"/>
    </contour>
    <contour>
      <point x="553.5" y="1082" type="move" name="top"/>
    </contour>
    <contour>
      <point x="890" y="0" type="move" name="ogonek"/>
    </contour>
  </outline>
</glyph>
<glyph name="h" format="1">
  <advance width="1164"/>
  <unicode hex="0068"/>
  <outline>
    <contour>
      <point x="131" y="2.02484e-06" type="line"/>
      <point x="355" y="2.02484e-06" type="line"/>
      <point x="355" y="551" type="line" smooth="yes"/>
      <point x="355" y="721"/>
      <point x="425" y="927"/>
      <point x="624" y="927" type="curve" smooth="yes"/>
      <point x="761" y="927"/>
      <point x="817" y="838"/>
      <point x="817" y="654" type="curve" smooth="yes"/>
      <point x="817" y="2.02484e-06" type="line"/>
      <point x="1041" y="2.02484e-06" type="line"/>
      <point x="1041" y="671" type="line" smooth="yes"/>
      <point x="1041" y="959"/>
      <point x="902" y="1109"/>
      <point x="667" y="1101" type="curve" smooth="yes"/>
      <point x="529.452" y="1096.15"/>
      <point x="414.817" y="1023.21"/>
      <point x="348.519" y="890.129" type="curve"/>
      <point x="355" y="1158" type="line"/>
      <point x="355" y="1560" type="line"/>
      <point x="131" y="1540" type="line"/>
    </contour>
    <contour>
      <point x="591" y="-18" type="move" name="bot"/>
    </contour>
    <contour>
      <point x="317" y="1266" type="move" name="mid"/>
    </contour>
    <contour>
      <point x="592" y="1456" type="move" name="top"/>
    </contour>
  </outline>
</glyph>
<glyph name="k" format="1">
  <advance width="1079"/>
  <unicode hex="006B"/>
  <outline>
    <contour>
      <point x="131" y="0" type="line"/>
      <point x="353" y="0" type="line"/>
      <point x="353" y="383.87" type="line"/>
      <point x="463.632" y="488.088" type="line"/>
      <point x="826" y="0" type="line"/>
      <point x="1071" y="0" type="line"/>
      <point x="1071" y="29" type="line"/>
      <point x="627.983" y="595.026" type="line"/>
      <point x="1047" y="1060" type="line"/>
      <point x="1047" y="1082" type="line"/>
      <point x="789" y="1082" type="line"/>
      <point x="347.269" y="585.509" type="line"/>
      <point x="353" y="800" type="line"/>
      <point x="353" y="1560" type="line"/>
      <point x="131" y="1540" type="line"/>
    </contour>
    <contour>
      <point x="581" y="-18" type="move" name="bot"/>
    </contour>
    <contour>
      <point x="614" y="1456" type="move" name="top"/>
    </contour>
  </outline>
</glyph>
<glyph name="m" format="1">
  <advance width="1760"/>
  <unicode hex="006D"/>
  <outline>
    <contour>
      <point x="118" y="-6.03027e-06" type="line"/>
      <point x="339" y="-6.03027e-06" type="line"/>
      <point x="339" y="572" type="line" smooth="yes"/>
      <point x="339" y="782"/>
      <point x="437" y="927"/>
      <point x="589" y="927" type="curve" smooth="yes"/>
      <point x="722" y="927"/>
      <point x="770" y="828"/>
      <point x="770" y="619" type="curve" smooth="yes"/>
      <point x="770" y="-6.03027e-06" type="line"/>
      <point x="991" y="-6.03027e-06" type="line"/>
      <point x="991" y="573" type="line" smooth="yes"/>
      <point x="991" y="586"/>
      <point x="991" y="599"/>
      <point x="992" y="612" type="curve" smooth="yes"/>
      <point x="1007" y="800"/>
      <point x="1122" y="927"/>
      <point x="1252" y="927" type="curve" smooth="yes"/>
      <point x="1400" y="927"/>
      <point x="1422" y="797"/>
      <point x="1422" y="617" type="curve" smooth="yes"/>
      <point x="1422" y="-6.03027e-06" type="line"/>
      <point x="1643" y="-6.03027e-06" type="line"/>
      <point x="1643" y="692" type="line" smooth="yes"/>
      <point x="1643" y="958"/>
      <point x="1529" y="1101"/>
      <point x="1298" y="1101" type="curve" smooth="yes"/>
      <point x="1159.87" y="1101"/>
      <point x="1018.48" y="1034.98"/>
      <point x="943.001" y="872.036" type="curve"/>
      <point x="898.451" y="1014.84"/>
      <point x="796.811" y="1101"/>
      <point x="643" y="1101" type="curve" smooth="yes"/>
      <point x="495.755" y="1101"/>
      <point x="384.094" y="1022.99"/>
      <point x="323.865" y="892.446" type="curve"/>
      <point x="300" y="1082" type="line"/>
      <point x="118" y="1082" type="line"/>
    </contour>
    <contour>
      <point x="880" y="0" type="move" name="bot"/>
    </contour>
    <contour>
      <point x="880" y="1082" type="move" name="top"/>
    </contour>
  </outline>
</glyph>
<glyph name="n" format="1">
  <advance width="1164"/>
  <unicode hex="006E"/>
  <outline>
    <contour>
      <point x="137" y="-1.11084e-06" type="line"/>
      <point x="361" y="-1.11084e-06" type="line"/>
      <point x="361" y="572" type="line" smooth="yes"/>
      <point x="361" y="784"/>
      <point x="444" y="927"/>
      <point x="626" y="927" type="curve" smooth="yes"/>
      <point x="773" y="927"/>
      <point x="822" y="826"/>
      <point x="822" y="643" type="curve" smooth="yes"/>
      <point x="822" y="-1.11084e-06" type="line"/>
      <point x="1046" y="-1.11084e-06" type="line"/>
      <point x="1046" y="661" type="line" smooth="yes"/>
      <point x="1046" y="943"/>
      <point x="909" y="1101"/>
      <point x="682" y="1101" type="curve" smooth="yes"/>
      <point x="495.593" y="1101"/>
      <point x="390.735" y="1003.41"/>
      <point x="343.925" y="860.692" type="curve"/>
      <point x="322" y="1082" type="line"/>
      <point x="137" y="1082" type="line"/>
    </contour>
    <contour>
      <point x="582" y="0" type="move" name="bot"/>
    </contour>
    <contour>
      <point x="582" y="1082" type="move" name="top"/>
    </contour>
    <contour>
      <point x="232" y="1082" type="move" name="caron.alt"/>
    </contour>
  </outline>
</glyph>
<glyph name="q" format="1">
  <advance width="1192"/>
  <unicode hex="0071"/>
  <outline>
    <contour>
      <point x="819" y="-468" type="line"/>
      <point x="1043" y="-468" type="line"/>
      <point x="1043" y="1082" type="line"/>
      <point x="838" y="1082" type="line"/>
      <point x="830.576" y="978.591" type="line"/>
      <point x="792.879" y="1035.95"/>
      <point x="716.287" y="1095.4"/>
      <point x="575" y="1101" type="curve" smooth="yes"/>
      <point x="309" y="1111"/>
      <point x="93" y="932"/>
      <point x="93" y="554" type="curve" smooth="yes"/>
      <point x="93" y="149"/>
      <point x="308" y="-34.9999"/>
      <point x="585" y="-17.9999" type="curve" smooth="yes"/>
      <point x="699.218" y="-11.007"/>
      <point x="772.793" y="31.4123"/>
      <point x="819" y="81.5966" type="curve"/>
    </contour>
    <contour>
      <point x="581" y="156" type="curve" smooth="yes"/>
      <point x="411" y="155"/>
      <point x="319" y="293"/>
      <point x="319" y="554" type="curve" smooth="yes"/>
      <point x="319" y="825"/>
      <point x="429" y="927"/>
      <point x="583" y="927" type="curve" smooth="yes"/>
      <point x="697" y="927"/>
      <point x="783" y="876"/>
      <point x="826" y="807" type="curve"/>
      <point x="826" y="280" type="line"/>
      <point x="800" y="241"/>
      <point x="744" y="157"/>
    </contour>
  </outline>
</glyph>
<glyph name="r" format="1">
  <advance width="795"/>
  <unicode hex="0072"/>
  <outline>
    <contour>
      <point x="156" y="5.37109e-06" type="line"/>
      <point x="380" y="5.37109e-06" type="line"/>
      <point x="380" y="598" type="line" smooth="yes"/>
      <point x="380" y="816"/>
      <point x="488" y="914"/>
      <point x="709" y="914" type="curve" smooth="yes"/>
      <point x="743" y="914" type="line"/>
      <point x="754" y="1083" type="line"/>
      <point x="729" y="1088"/>
      <point x="695" y="1089"/>
      <point x="669" y="1089" type="curve" smooth="yes"/>
      <point x="556.457" y="1089"/>
      <point x="441.595" y="1037.2"/>
      <point x="365.877" y="849.331" type="curve"/>
      <point x="341" y="1082" type="line"/>
      <point x="156" y="1082" type="line"/>
    </contour>
    <contour>
      <point x="397.5" y="0" type="move" name="bot"/>
    </contour>
    <contour>
      <point x="397.5" y="1082" type="move" name="top"/>
    </contour>
  </outline>
</glyph>
<glyph name="s" format="1">
  <advance width="994"/>
  <unicode hex="0073"/>
  <outline>
    <contour>
      <point x="509" y="-18" type="curve" smooth="yes"/>
      <point x="734" y="-18"/>
      <point x="905" y="82"/>
      <point x="907" y="304" type="curve" smooth="yes"/>
      <point x="908" y="417"/>
      <point x="902" y="522"/>
      <point x="595" y="640" type="curve" smooth="yes"/>
      <point x="500" y="675" type="line" smooth="yes"/>
      <point x="375" y="723"/>
      <point x="352" y="754"/>
      <point x="356" y="816" type="curve" smooth="yes"/>
      <point x="362" y="895"/>
      <point x="420" y="927"/>
      <point x="529" y="927" type="curve" smooth="yes"/>
      <point x="625" y="927"/>
      <point x="698" y="887"/>
      <point x="740" y="821" type="curve"/>
      <point x="754" y="819" type="line"/>
      <point x="886" y="915" type="line"/>
      <point x="829" y="1029"/>
      <point x="684" y="1096"/>
      <point x="528" y="1101" type="curve" smooth="yes"/>
      <point x="322" y="1107"/>
      <point x="140" y="1032"/>
      <point x="129" y="817" type="curve" smooth="yes"/>
      <point x="121" y="675"/>
      <point x="171" y="584"/>
      <point x="424" y="486" type="curve" smooth="yes"/>
      <point x="520" y="451" type="line" smooth="yes"/>
      <point x="692" y="385"/>
      <point x="697" y="346"/>
      <point x="696" y="291" type="curve" smooth="yes"/>
      <point x="695" y="210"/>
      <point x="639" y="157"/>
      <point x="516" y="157" type="curve" smooth="yes"/>
      <point x="416" y="157"/>
      <point x="313" y="196"/>
      <point x="241" y="297" type="curve"/>
      <point x="224" y="297" type="line"/>
      <point x="86" y="193" type="line"/>
      <point x="160" y="49"/>
      <point x="335" y="-18"/>
    </contour>
    <contour>
      <point x="497" y="0" type="move" name="bot"/>
    </contour>
    <contour>
      <point x="497" y="1082" type="move" name="top"/>
    </contour>
  </outline>
</glyph>
<glyph name="braceleft" format="1">
  <advance width="908"/>
  <unicode hex="007B"/>
  <outline>
    <contour>
      <point x="779" y="-269" type="curve"/>
      <point x="779" y="-92" type="line"/>
      <point x="638" y="-90"/>
      <point x="608" y="-44"/>
      <point x="608" y="101" type="curve" smooth="yes"/>
      <point x="608" y="368" type="line" smooth="yes"/>
      <point x="608" y="513"/>
      <point x="550" y="592"/>
      <point x="428" y="627" type="curve"/>
      <point x="556" y="680"/>
      <point x="607" y="756"/>
      <point x="608" y="898" type="curve" smooth="yes"/>
      <point x="608" y="1164" type="line" smooth="yes"/>
      <point x="608" y="1311"/>
      <point x="640" y="1356"/>
      <point x="779" y="1358" type="curve"/>
      <point x="779" y="1538" type="line"/>
      <point x="531" y="1538"/>
      <point x="398" y="1454"/>
      <point x="398" y="1233" type="curve" smooth="yes"/>
      <point x="398" y="966" type="line" smooth="yes"/>
      <point x="398" y="804"/>
      <point x="371" y="725"/>
      <point x="190" y="724" type="curve"/>
      <point x="190" y="535" type="line"/>
      <point x="368" y="534"/>
      <point x="398" y="453"/>
      <point x="398" y="291" type="curve" smooth="yes"/>
      <point x="398" y="53" type="line" smooth="yes"/>
      <point x="398" y="-180"/>
      <point x="519" y="-269"/>
    </contour>
  </outline>
</glyph>
<glyph name="asciitilde" format="1">
  <advance width="1192"/>
  <unicode hex="007E"/>
  <outline>
    <contour>
      <point x="162" y="480" type="line"/>
      <point x="204" y="560"/>
      <point x="274" y="630"/>
      <point x="360" y="630" type="curve" smooth="yes"/>
      <point x="430" y="630"/>
      <point x="494" y="601"/>
      <point x="579" y="561" type="curve" smooth="yes"/>
      <point x="666" y="521"/>
      <point x="738" y="492"/>
      <point x="821" y="492" type="curve" smooth="yes"/>
      <point x="956" y="492"/>
      <point x="1060" y="580"/>
      <point x="1110" y="691" type="curve"/>
      <point x="1041" y="812" type="line"/>
      <point x="979" y="723"/>
      <point x="908" y="669"/>
      <point x="831" y="669" type="curve" smooth="yes"/>
      <point x="775" y="669"/>
      <point x="703" y="700"/>
      <point x="613" y="740" type="curve" smooth="yes"/>
      <point x="523" y="780"/>
      <point x="449" y="806"/>
      <point x="367" y="806" type="curve" smooth="yes"/>
      <point x="227" y="806"/>
      <point x="141" y="717"/>
      <point x="93" y="609" type="curve"/>
    </contour>
  </outline>
</glyph>
<glyph name="yen" format="1">
  <advance width="1221"/>
  <unicode hex="00A5"/>
  <outline>
    <contour>
      <point x="165" y="293" type="line"/>
      <point x="1048" y="293" type="line"/>
      <point x="1048" y="437" type="line"/>
      <point x="165" y="437" type="line"/>
    </contour>
    <contour>
      <point x="165" y="605" type="line"/>
      <point x="1048" y="605" type="line"/>
      <point x="1048" y="749" type="line"/>
      <point x="165" y="749" type="line"/>
    </contour>
    <component base="Y" xOffset="31"/>
  </outline>
</glyph>
<glyph name="copyright" format="1">
  <advance width="1705"/>
  <unicode hex="00A9"/>
  <outline>
    <contour>
      <point x="850" y="253" type="curve" smooth="yes"/>
      <point x="961" y="253"/>
      <point x="1063" y="283"/>
      <point x="1146" y="338" type="curve"/>
      <point x="1100" y="444" type="line"/>
      <point x="1024" y="396"/>
      <point x="936" y="375"/>
      <point x="860" y="375" type="curve" smooth="yes"/>
      <point x="664" y="375"/>
      <point x="527" y="525"/>
      <point x="527" y="760" type="curve" smooth="yes"/>
      <point x="527" y="988"/>
      <point x="663" y="1141"/>
      <point x="854" y="1141" type="curve" smooth="yes"/>
      <point x="927" y="1141"/>
      <point x="1020" y="1118"/>
      <point x="1092" y="1069" type="curve"/>
      <point x="1144" y="1177" type="line"/>
      <point x="1059" y="1236"/>
      <point x="957" y="1264"/>
      <point x="846" y="1264" type="curve" smooth="yes"/>
      <point x="580" y="1264"/>
      <point x="381" y="1042"/>
      <point x="381" y="757" type="curve" smooth="yes"/>
      <point x="381" y="463"/>
      <point x="587" y="253"/>
    </contour>
    <contour>
      <point x="849" y="94" type="curve" smooth="yes"/>
      <point x="496" y="94"/>
      <point x="203" y="363"/>
      <point x="203" y="764" type="curve" smooth="yes"/>
      <point x="203" y="1163"/>
      <point x="496" y="1428"/>
      <point x="848" y="1428" type="curve" smooth="yes"/>
      <point x="1204" y="1428"/>
      <point x="1498" y="1162"/>
      <point x="1498" y="763" type="curve" smooth="yes"/>
      <point x="1498" y="363"/>
      <point x="1205" y="94"/>
    </contour>
    <contour>
      <point x="849" y="-12" type="curve" smooth="yes"/>
      <point x="1251" y="-12"/>
      <point x="1619" y="284"/>
      <point x="1619" y="764" type="curve" smooth="yes"/>
      <point x="1619" y="1242"/>
      <point x="1250" y="1535"/>
      <point x="848" y="1535" type="curve" smooth="yes"/>
      <point x="449" y="1535"/>
      <point x="86" y="1243"/>
      <point x="86" y="764" type="curve" smooth="yes"/>
      <point x="86" y="284"/>
      <point x="450" y="-12"/>
    </contour>
  </outline>
</glyph>
<glyph name="uni00AD" format="1">
  <advance width="965"/>
  <unicode hex="00AD"/>
  <outline>
    <contour>
      <point x="150" y="303" type="line"/>
      <point x="809" y="303" type="line"/>
      <point x="809" y="489" type="line"/>
      <point x="150" y="489" type="line"/>
    </contour>
  </outline>
</glyph>
<glyph name="degree" format="1">
  <advance width="853"/>
  <unicode hex="00B0"/>
  <outline>
    <contour>
      <point x="426" y="1022" type="curve" smooth="yes"/>
      <point x="336" y="1022"/>
      <point x="259" y="1089"/>
      <point x="259" y="1198" type="curve" smooth="yes"/>
      <point x="259" y="1304"/>
      <point x="337" y="1370"/>
      <point x="427" y="1370" type="curve" smooth="yes"/>
      <point x="515" y="1370"/>
      <point x="593" y="1304"/>
      <point x="593" y="1198" type="curve" smooth="yes"/>
      <point x="593" y="1089"/>
      <point x="516" y="1022"/>
    </contour>
    <contour>
      <point x="426" y="895" type="curve" smooth="yes"/>
      <point x="611" y="895"/>
      <point x="735" y="1036"/>
      <point x="735" y="1199" type="curve" smooth="yes"/>
      <point x="735" y="1366"/>
      <point x="607" y="1495"/>
      <point x="426" y="1495" type="curve" smooth="yes"/>
      <point x="245" y="1495"/>
      <point x="118" y="1366"/>
      <point x="118" y="1199" type="curve" smooth="yes"/>
      <point x="118" y="1032"/>
      <point x="243" y="895"/>
    </contour>
  </outline>
</glyph>
<glyph name="threesuperior" format="1">
  <advance width="852"/>
  <unicode hex="00B3"/>
  <outline>
    <contour>
      <point x="411" y="584" type="curve" smooth="yes"/>
      <point x="576" y="584"/>
      <point x="725" y="670"/>
      <point x="725" y="852" type="curve" smooth="yes"/>
      <point x="725" y="948"/>
      <point x="669" y="1035"/>
      <point x="566" y="1060" type="curve"/>
      <point x="671" y="1082"/>
      <point x="705" y="1177"/>
      <point x="706" y="1252" type="curve" smooth="yes"/>
      <point x="706" y="1409"/>
      <point x="578" y="1475"/>
      <point x="435" y="1475" type="curve" smooth="yes"/>
      <point x="338" y="1475"/>
      <point x="235" y="1445"/>
      <point x="158" y="1392" type="curve"/>
      <point x="213" y="1283" type="line"/>
      <point x="283" y="1323"/>
      <point x="355" y="1343"/>
      <point x="414" y="1343" type="curve" smooth="yes"/>
      <point x="494" y="1343"/>
      <point x="551" y="1307"/>
      <point x="551" y="1231" type="curve" smooth="yes"/>
      <point x="551" y="1161"/>
      <point x="513" y="1118"/>
      <point x="399" y="1118" type="curve" smooth="yes"/>
      <point x="292" y="1118" type="line"/>
      <point x="292" y="988" type="line"/>
      <point x="399" y="989" type="line" smooth="yes"/>
      <point x="519" y="990"/>
      <point x="571" y="940"/>
      <point x="571" y="854" type="curve" smooth="yes"/>
      <point x="571" y="757"/>
      <point x="497" y="717"/>
      <point x="408" y="717" type="curve" smooth="yes"/>
      <point x="341" y="717"/>
      <point x="265" y="741"/>
      <point x="208" y="780" type="curve"/>
      <point x="154" y="657" type="line"/>
      <point x="230" y="609"/>
      <point x="323" y="584"/>
    </contour>
  </outline>
</glyph>
<glyph name="periodcentered" format="1">
  <advance width="624"/>
  <unicode hex="00B7"/>
  <outline>
    <contour>
      <point x="394" y="479" type="curve" smooth="yes"/>
      <point x="487" y="479"/>
      <point x="529" y="533"/>
      <point x="529" y="626" type="curve" smooth="yes"/>
      <point x="529" y="717"/>
      <point x="487" y="768"/>
      <point x="394" y="768" type="curve" smooth="yes"/>
      <point x="298" y="768"/>
      <point x="258" y="717"/>
      <point x="258" y="626" type="curve" smooth="yes"/>
      <point x="258" y="533"/>
      <point x="298" y="479"/>
    </contour>
    <contour>
      <point x="3" y="634" type="move" name="_mid"/>
    </contour>
  </outline>
</glyph>
<glyph name="onesuperior" format="1">
  <advance width="823"/>
  <unicode hex="00B9"/>
  <outline>
    <contour>
      <point x="208" y="560" type="line"/>
      <point x="662" y="560" type="line"/>
      <point x="662" y="704" type="line"/>
      <point x="525" y="704" type="line"/>
      <point x="525" y="1456" type="line"/>
      <point x="390" y="1456" type="line"/>
      <point x="356" y="1430"/>
      <point x="236" y="1366"/>
      <point x="194" y="1346" type="curve"/>
      <point x="194" y="1201" type="line"/>
      <point x="209" y="1206"/>
      <point x="313" y="1255"/>
      <point x="350" y="1276" type="curve"/>
      <point x="350" y="704" type="line"/>
      <point x="208" y="704" type="line"/>
    </contour>
  </outline>
</glyph>
<glyph name="onehalf" format="1">
  <advance width="1618"/>
  <unicode hex="00BD"/>
  <outline>
    <contour>
      <point x="1006" y="0" type="line"/>
      <point x="1547" y="0" type="line"/>
      <point x="1560" y="138" type="line"/>
      <point x="1235" y="138" type="line"/>
      <point x="1293" y="190"/>
      <point x="1347" y="236"/>
      <point x="1394" y="281" type="curve" smooth="yes"/>
      <point x="1497" y="381"/>
      <point x="1564" y="475"/>
      <point x="1564" y="607" type="curve" smooth="yes"/>
      <point x="1564" y="782"/>
      <point x="1425" y="879"/>
      <point x="1281" y="879" type="curve" smooth="yes"/>
      <point x="1160" y="879"/>
      <point x="1049" y="829"/>
      <point x="991" y="736" type="curve"/>
      <point x="1068" y="629" type="line"/>
      <point x="1118" y="698"/>
      <point x="1197" y="731"/>
      <point x="1270" y="731" type="curve" smooth="yes"/>
      <point x="1336" y="731"/>
      <point x="1401" y="686"/>
      <point x="1401" y="600" type="curve" smooth="yes"/>
      <point x="1401" y="545"/>
      <point x="1346" y="469"/>
      <point x="1275" y="393" type="curve" smooth="yes"/>
      <point x="1177" y="286"/>
      <point x="1049" y="179"/>
      <point x="1006" y="135" type="curve"/>
    </contour>
    <contour>
      <point x="38" y="597" type="line"/>
      <point x="492" y="597" type="line"/>
      <point x="492" y="741" type="line"/>
      <point x="355" y="741" type="line"/>
      <point x="355" y="1493" type="line"/>
      <point x="220" y="1493" type="line"/>
      <point x="186" y="1467"/>
      <point x="66" y="1403"/>
      <point x="24" y="1383" type="curve"/>
      <point x="24" y="1238" type="line"/>
      <point x="39" y="1243"/>
      <point x="143" y="1292"/>
      <point x="180" y="1313" type="curve"/>
      <point x="180" y="741" type="line"/>
      <point x="38" y="741" type="line"/>
    </contour>
    <contour>
      <point x="246" y="0" type="line"/>
      <point x="427" y="0" type="line"/>
      <point x="1380" y="1493" type="line"/>
      <point x="1204" y="1493" type="line"/>
    </contour>
  </outline>
</glyph>
<glyph name="Oslash" format="1">
  <advance width="1533"/>
  <unicode hex="00D8"/>
  <outline>
    <contour>
      <point x="477" y="-239" type="line"/>
      <point x="1210" y="1676" type="line"/>
      <point x="1085" y="1724" type="line"/>
      <point x="358" y="-196" type="line"/>
    </contour>
    <component base="O"/>
  </outline>
</glyph>
<glyph name="divide" format="1">
  <advance width="1221"/>
  <unicode hex="00F7"/>
  <outline>
    <contour>
      <point x="482" y="25" type="line"/>
      <point x="725" y="25" type="line"/>
      <point x="725" y="278" type="line"/>
      <point x="482" y="278" type="line"/>
    </contour>
    <contour>
      <point x="93" y="498" type="line"/>
      <point x="1113" y="498" type="line"/>
      <point x="1113" y="675" type="line"/>
      <point x="93" y="675" type="line"/>
    </contour>
    <contour>
      <point x="482" y="888" type="line"/>
      <point x="731" y="888" type="line"/>
      <point x="731" y="1132" type="line"/>
      <point x="482" y="1132" type="line"/>
    </contour>
  </outline>
</glyph>
<glyph name="thorn" format="1">
  <advance width="1164"/>
  <unicode hex="00FE"/>
  <outline>
    <contour>
      <point x="153" y="-491" type="line"/>
      <point x="370" y="-491" type="line"/>
      <point x="370" y="452" type="line"/>
      <point x="153" y="452" type="line"/>
    </contour>
    <component base="b"/>
  </outline>
</glyph>
<glyph name="Hbar" format="1">
  <advance width="1505"/>
  <unicode hex="0126"/>
  <outline>
    <contour>
      <point x="167" y="0" type="line"/>
      <point x="388" y="0" type="line"/>
      <point x="388" y="677" type="line"/>
      <point x="1114" y="677" type="line"/>
      <point x="1114" y="0" type="line"/>
      <point x="1337" y="0" type="line"/>
      <point x="1337" y="1162" type="line"/>
      <point x="1422" y="1162" type="line"/>
      <point x="1422" y="1290" type="line"/>
      <point x="1337" y="1290" type="line"/>
      <point x="1337" y="1484" type="line"/>
      <point x="1114" y="1484" type="line"/>
      <point x="1114" y="1290" type="line"/>
      <point x="388" y="1290" type="line"/>
      <point x="388" y="1484" type="line"/>
      <point x="167" y="1484" type="line"/>
      <point x="167" y="1290" type="line"/>
      <point x="82" y="1290" type="line"/>
      <point x="82" y="1162" type="line"/>
      <point x="167" y="1162" type="line"/>
    </contour>
    <contour>
      <point x="388" y="858" type="line"/>
      <point x="388" y="1162" type="line"/>
      <point x="1114" y="1162" type="line"/>
      <point x="1114" y="858" type="line"/>
    </contour>
  </outline>
</glyph>
<glyph name="kgreenlandic" format="1">
  <advance width="1136"/>
  <unicode hex="0138"/>
  <outline>
    <contour>
      <point x="131" y="0" type="line"/>
      <point x="353" y="0" type="line"/>
      <point x="353" y="375.796" type="line"/>
      <point x="453.842" y="472.522" type="line"/>
      <point x="823" y="5.68434e-14" type="line"/>
      <point x="1074" y="5.68434e-14" type="line"/>
      <point x="1074" y="15" type="line"/>
      <point x="620.526" y="588.052" type="line"/>
      <point x="1046" y="1061" type="line"/>
      <point x="1046" y="1082" type="line"/>
      <point x="789" y="1082" type="line"/>
      <point x="347.254" y="581.842" type="line"/>
      <point x="353" y="801" type="line"/>
      <point x="353" y="1082" type="line"/>
      <point x="131" y="1082" type="line"/>
    </contour>
  </outline>
</glyph>
<glyph name="OE" format="1">
  <advance width="2297"/>
  <unicode hex="0152"/>
  <outline>
    <contour>
      <point x="772" y="-18" type="curve" smooth="yes"/>
      <point x="955" y="-18"/>
      <point x="1087" y="32"/>
      <point x="1178" y="124" type="curve"/>
      <point x="1178" y="0" type="line"/>
      <point x="2151" y="0" type="line"/>
      <point x="2159" y="195" type="line"/>
      <point x="1418" y="195" type="line"/>
      <point x="1418" y="654" type="line"/>
      <point x="2089" y="654" type="line"/>
      <point x="2089" y="845" type="line"/>
      <point x="1418" y="845" type="line"/>
      <point x="1418" y="1266" type="line"/>
      <point x="2129" y="1266" type="line"/>
      <point x="2142" y="1456" type="line"/>
      <point x="1178" y="1456" type="line"/>
      <point x="1178" y="1333" type="line"/>
      <point x="1086" y="1429"/>
      <point x="954" y="1480"/>
      <point x="772" y="1480" type="curve" smooth="yes"/>
      <point x="341" y="1480"/>
      <point x="108" y="1201"/>
      <point x="108" y="725" type="curve" smooth="yes"/>
      <point x="108" y="258"/>
      <point x="336" y="-18"/>
    </contour>
    <contour>
      <point x="771" y="186" type="curve" smooth="yes"/>
      <point x="479" y="186"/>
      <point x="362" y="398"/>
      <point x="362" y="724" type="curve" smooth="yes"/>
      <point x="362" y="1061"/>
      <point x="485" y="1276"/>
      <point x="772" y="1276" type="curve" smooth="yes"/>
      <point x="1060" y="1276"/>
      <point x="1177" y="1060"/>
      <point x="1177" y="724" type="curve" smooth="yes"/>
      <point x="1177" y="398"/>
      <point x="1063" y="186"/>
    </contour>
    <contour>
      <point x="1658" y="0" type="move" name="bot"/>
    </contour>
    <contour>
      <point x="1901" y="0" type="move" name="ogonek"/>
    </contour>
    <contour>
      <point x="1658" y="1456" type="move" name="top"/>
    </contour>
  </outline>
</glyph>
<glyph name="oe" format="1">
  <advance width="1878"/>
  <unicode hex="0153"/>
  <outline>
    <contour>
      <point x="582" y="-18" type="curve" smooth="yes"/>
      <point x="752" y="-18"/>
      <point x="904" y="79"/>
      <point x="969" y="205" type="curve"/>
      <point x="1048" y="71"/>
      <point x="1222" y="-23"/>
      <point x="1402" y="-18" type="curve" smooth="yes"/>
      <point x="1561" y="-14"/>
      <point x="1689" y="37"/>
      <point x="1760" y="98" type="curve"/>
      <point x="1702" y="246" type="line"/>
      <point x="1689" y="246" type="line"/>
      <point x="1629" y="200"/>
      <point x="1529" y="157"/>
      <point x="1412" y="156" type="curve" smooth="yes"/>
      <point x="1258" y="155"/>
      <point x="1098" y="229"/>
      <point x="1081" y="473" type="curve"/>
      <point x="1772" y="473" type="line"/>
      <point x="1772" y="473"/>
      <point x="1780" y="527"/>
      <point x="1780" y="586" type="curve" smooth="yes"/>
      <point x="1780" y="897"/>
      <point x="1631" y="1097"/>
      <point x="1355" y="1101" type="curve" smooth="yes"/>
      <point x="1200" y="1103"/>
      <point x="1043" y="1007"/>
      <point x="971" y="878" type="curve"/>
      <point x="906" y="1005"/>
      <point x="753" y="1101"/>
      <point x="582" y="1101" type="curve" smooth="yes"/>
      <point x="271" y="1101"/>
      <point x="86" y="882"/>
      <point x="86" y="543" type="curve" smooth="yes"/>
      <point x="86" y="205"/>
      <point x="272" y="-18"/>
    </contour>
    <contour>
      <point x="582" y="156" type="curve" smooth="yes"/>
      <point x="396" y="156"/>
      <point x="312" y="302"/>
      <point x="312" y="543" type="curve" smooth="yes"/>
      <point x="312" y="784"/>
      <point x="396" y="927"/>
      <point x="582" y="927" type="curve" smooth="yes"/>
      <point x="768" y="927"/>
      <point x="852" y="784"/>
      <point x="852" y="543" type="curve" smooth="yes"/>
      <point x="852" y="302"/>
      <point x="768" y="156"/>
    </contour>
    <contour>
      <point x="1084" y="621" type="line"/>
      <point x="1099" y="828"/>
      <point x="1220" y="933"/>
      <point x="1359" y="933" type="curve" smooth="yes"/>
      <point x="1500" y="933"/>
      <point x="1576" y="838"/>
      <point x="1584" y="621" type="curve"/>
    </contour>
    <contour>
      <point x="1322.5" y="0" type="move" name="bot"/>
    </contour>
    <contour>
      <point x="1322.5" y="1082" type="move" name="top"/>
    </contour>
    <contour>
      <point x="1449" y="0" type="move" name="ogonek"/>
    </contour>
  </outline>
</glyph>
<glyph name="circumflex" format="1">
  <advance width="937"/>
  <unicode hex="02C6"/>
  <outline>
    <contour>
      <point x="147" y="1276" type="line"/>
      <point x="307" y="1276" type="line"/>
      <point x="463" y="1438" type="line"/>
      <point x="627" y="1276" type="line"/>
      <point x="789" y="1276" type="line"/>
      <point x="571" y="1591" type="line"/>
      <point x="369" y="1591" type="line"/>
    </contour>
    <contour>
      <point x="468.5" y="1082" type="move" name="_top"/>
    </contour>
  </outline>
</glyph>
<glyph name="breve" format="1">
  <advance width="880"/>
  <unicode hex="02D8"/>
  <outline>
    <contour>
      <point x="439" y="1256" type="curve" smooth="yes"/>
      <point x="588" y="1256"/>
      <point x="706" y="1335"/>
      <point x="706" y="1513" type="curve"/>
      <point x="559" y="1513" type="line"/>
      <point x="559" y="1431"/>
      <point x="514" y="1399"/>
      <point x="439" y="1399" type="curve" smooth="yes"/>
      <point x="364" y="1399"/>
      <point x="321" y="1431"/>
      <point x="321" y="1513" type="curve"/>
      <point x="173" y="1513" type="line"/>
      <point x="173" y="1336"/>
      <point x="291" y="1256"/>
    </contour>
    <contour>
      <point x="440" y="1082" type="move" name="_top"/>
    </contour>
  </outline>
</glyph>
<glyph name="dotaccent" format="1">
  <advance width="624"/>
  <unicode hex="02D9"/>
  <outline>
    <contour>
      <point x="322" y="1265" type="curve" smooth="yes"/>
      <point x="415" y="1265"/>
      <point x="457" y="1319"/>
      <point x="457" y="1412" type="curve" smooth="yes"/>
      <point x="457" y="1503"/>
      <point x="415" y="1554"/>
      <point x="322" y="1554" type="curve" smooth="yes"/>
      <point x="226" y="1554"/>
      <point x="186" y="1503"/>
      <point x="186" y="1412" type="curve" smooth="yes"/>
      <point x="186" y="1319"/>
      <point x="226" y="1265"/>
    </contour>
    <contour>
      <point x="324" y="1082" type="move" name="_top"/>
    </contour>
  </outline>
</glyph>
<glyph name="commaturnedabovecomb" format="1">
  <advance width="600"/>
  <unicode hex="0312"/>
  <outline>
    <contour>
      <point x="178" y="1248" type="line"/>
      <point x="415" y="1248" type="line"/>
      <point x="469" y="1859" type="line"/>
      <point x="317" y="1859" type="line" smooth="yes"/>
      <point x="317" y="1859"/>
      <point x="183" y="1312"/>
      <point x="183" y="1299" type="curve"/>
    </contour>
    <contour>
      <point x="301" y="1082" type="move" name="_top"/>
    </contour>
  </outline>
</glyph>
<glyph name="emdash" format="1">
  <advance width="1931"/>
  <unicode hex="2014"/>
  <outline>
    <contour>
      <point x="-59" y="484" type="line"/>
      <point x="2002" y="484" type="line"/>
      <point x="2002" y="659" type="line"/>
      <point x="-59" y="659" type="line"/>
    </contour>
  </outline>
</glyph>
<glyph name="quotesinglbase" format="1">
  <advance width="653"/>
  <unicode hex="201A"/>
  <outline>
    <contour>
      <point x="169" y="-250" type="line"/>
      <point x="316" y="-250" type="line"/>
      <point x="462" y="239" type="line"/>
      <point x="268" y="239" type="line"/>
    </contour>
  </outline>
</glyph>
<glyph name="quotedblright" format="1">
  <advance width="880"/>
  <unicode hex="201D"/>
  <outline>
    <contour>
      <point x="150" y="904" type="line"/>
      <point x="307" y="904" type="line"/>
      <point x="458" y="1472" type="line"/>
      <point x="241" y="1472" type="line"/>
    </contour>
    <contour>
      <point x="472" y="904" type="line"/>
      <point x="624" y="904" type="line"/>
      <point x="788" y="1472" type="line"/>
      <point x="567" y="1472" type="line"/>
    </contour>
  </outline>
</glyph>
<glyph name="bullet" format="1">
  <advance width="937"/>
  <unicode hex="2022"/>
  <outline>
    <contour>
      <point x="457" y="379" type="curve" smooth="yes"/>
      <point x="642" y="379"/>
      <point x="796" y="518"/>
      <point x="796" y="721" type="curve" smooth="yes"/>
      <point x="796" y="925"/>
      <point x="647" y="1059"/>
      <point x="463" y="1059" type="curve" smooth="yes"/>
      <point x="278" y="1059"/>
      <point x="124" y="920"/>
      <point x="124" y="716" type="curve" smooth="yes"/>
      <point x="124" y="514"/>
      <point x="272" y="379"/>
    </contour>
  </outline>
</glyph>
<glyph name="guilsinglleft" format="1">
  <advance width="766"/>
  <unicode hex="2039"/>
  <outline>
    <contour>
      <point x="427" y="160" type="line"/>
      <point x="608" y="160" type="line"/>
      <point x="341" y="574" type="line"/>
      <point x="614" y="996" type="line"/>
      <point x="433" y="996" type="line"/>
      <point x="150" y="574" type="line"/>
    </contour>
  </outline>
</glyph>
<glyph name="partialdiff" format="1">
  <advance width="1278"/>
  <unicode hex="2202"/>
  <outline>
    <contour>
      <point x="512" y="-20" type="curve" smooth="yes"/>
      <point x="876" y="-20"/>
      <point x="1112" y="389"/>
      <point x="1112" y="919" type="curve" smooth="yes"/>
      <point x="1112" y="1449"/>
      <point x="677" y="1711"/>
      <point x="254" y="1469" type="curve"/>
      <point x="303" y="1345" type="line"/>
      <point x="614" y="1510"/>
      <point x="908" y="1327"/>
      <point x="891" y="944" type="curve"/>
      <point x="142" y="920"/>
      <point x="-62" y="-20"/>
    </contour>
    <contour>
      <point x="526" y="111" type="curve" smooth="yes"/>
      <point x="314" y="111"/>
      <point x="451" y="784"/>
      <point x="884" y="826" type="curve"/>
      <point x="863" y="542"/>
      <point x="751" y="111"/>
    </contour>
  </outline>
</glyph>
<glyph name="notequal" format="1">
  <advance width="1136"/>
  <unicode hex="2260"/>
  <outline>
    <contour>
      <point x="350" y="44" type="line"/>
      <point x="488" y="333" type="line"/>
      <point x="1040" y="333" type="line"/>
      <point x="1030" y="490" type="line"/>
      <point x="559" y="490" type="line"/>
      <point x="690" y="750" type="line"/>
      <point x="1040" y="750" type="line"/>
      <point x="1028" y="915" type="line"/>
      <point x="761" y="915" type="line"/>
      <point x="875" y="1170" type="line"/>
      <point x="732" y="1190" type="line"/>
      <point x="597" y="915" type="line"/>
      <point x="61" y="915" type="line"/>
      <point x="72" y="751" type="line"/>
      <point x="527" y="751" type="line"/>
      <point x="399" y="491" type="line"/>
      <point x="63" y="491" type="line"/>
      <point x="72" y="333" type="line"/>
      <point x="325" y="333" type="line"/>
      <point x="208" y="68" type="line"/>
    </contour>
  </outline>
</glyph>
<glyph name="lozenge" format="1">
  <advance width="1192"/>
  <unicode hex="25CA"/>
  <outline>
    <contour>
      <point x="532" y="-46" type="line"/>
      <point x="651" y="-46" type="line"/>
      <point x="1085" y="752" type="line"/>
      <point x="660" y="1552" type="line"/>
      <point x="539" y="1552" type="line"/>
      <point x="108" y="751" type="line"/>
    </contour>
    <contour>
      <point x="590" y="146" type="curve"/>
      <point x="484" y="346"/>
      <point x="380" y="552"/>
      <point x="276" y="753" type="curve"/>
      <point x="383" y="954"/>
      <point x="493" y="1156"/>
      <point x="601" y="1356" type="curve"/>
      <point x="704" y="1154"/>
      <point x="813" y="952"/>
      <point x="917" y="752" type="curve"/>
      <point x="810" y="551"/>
      <point x="698" y="348"/>
    </contour>
  </outline>
</glyph>
